HIERARCHY
ROOT hip
{
	OFFSET 0.000000 0.000000 0.000000 
	CHANNELS 6 Xposition Yposition Zposition Xrotation Zrotation Yrotation
	JOINT abdomen
	{
		OFFSET 0.000000 3.402643 0.000000 
		CHANNELS 3 Xrotation Zrotation Yrotation
		JOINT chest
		{
			OFFSET 0.000000 8.438565 -0.680529 
			CHANNELS 3 Xrotation Zrotation Yrotation
			JOINT neck
			{
				OFFSET 0.000000 10.207942 -0.272212 
				CHANNELS 3 Xrotation Zrotation Yrotation
				JOINT head
				{
					OFFSET 0.000000 3.130431 0.000000 
					CHANNELS 3 Xrotation Zrotation Yrotation
					End Site
					{
						OFFSET 0.000000 3.130435 0.000000 
					}
				}
			}
			JOINT lCollar
			{
				OFFSET 3.470700 6.669187 -0.816635 
				CHANNELS 3 Yrotation Zrotation Xrotation
				JOINT lShldr
				{
					OFFSET 3.198488 0.000000 0.000000 
					CHANNELS 3 Zrotation Yrotation Xrotation
					JOINT lForeArm
					{
						OFFSET 10.139888 0.000000 0.000000 
						CHANNELS 3 Yrotation Zrotation Xrotation
						JOINT lHand
						{
							OFFSET 8.370511 0.000000 0.000000 
							CHANNELS 3 Zrotation Yrotation Xrotation
							End Site
							{
								OFFSET 4.083176 0.000000 0.000000 
							}
						}
					}
				}
			}
			JOINT rCollar
			{
				OFFSET -3.470700 6.669187 -0.816635 
				CHANNELS 3 Yrotation Zrotation Xrotation
				JOINT rShldr
				{
					OFFSET -3.198488 0.000000 0.000000 
					CHANNELS 3 Zrotation Yrotation Xrotation
					JOINT rForeArm
					{
						OFFSET -10.139888 0.000000 0.000000 
						CHANNELS 3 Yrotation Zrotation Xrotation
						JOINT rHand
						{
							OFFSET -8.370511 0.000000 0.000000 
							CHANNELS 3 Zrotation Yrotation Xrotation
							End Site
							{
								OFFSET -4.083176 0.000000 0.000000 
							}
						}
					}
				}
			}
		}
	}
	JOINT lThigh
	{
		OFFSET 5.308129 -1.633274 1.361059 
		CHANNELS 3 Xrotation Zrotation Yrotation
		JOINT lShin
		{
			OFFSET -2.041588 -20.007561 0.000000 
			CHANNELS 3 Xrotation Zrotation Yrotation
			JOINT lFoot
			{
				OFFSET 0.000000 -19.190928 -1.224953 
				CHANNELS 3 Xrotation Yrotation Zrotation
				End Site
				{
					OFFSET 0.000000 -2.449906 4.627600 
				}
			}
		}
	}
	JOINT rThigh
	{
		OFFSET -5.308129 -1.633274 1.361059 
		CHANNELS 3 Xrotation Zrotation Yrotation
		JOINT rShin
		{
			OFFSET 2.041588 -20.007561 0.000000 
			CHANNELS 3 Xrotation Zrotation Yrotation
			JOINT rFoot
			{
				OFFSET 0.000000 -19.190928 -1.224953 
				CHANNELS 3 Xrotation Yrotation Zrotation
				End Site
				{
					OFFSET 0.000000 -2.449906 4.627600 
				}
			}
		}
	}
}
MOTION
Frames: 9
Frame Time: 0.016667
-13.781203 43.277775 6.476635 6.205850 3.902850 25.111900 -20.826200 0.249459 -6.605760 16.608801 7.277800 -3.361900 12.996964 -12.377300 -12.512193 15.147100 8.344830 -2.696880 2.000000 -2.000000 0.000000 -92.730698 -27.382401 -149.755997 126.464996 -0.127787 0.127603 0.046411 -0.023813 -145.457001 -2.000000 2.000000 0.000000 79.034798 14.396700 -168.548004 -133.203003 0.127937 0.082785 -0.061525 0.047281 -154.059998 -5.549368 1.339064 0.348223 35.073627 3.100505 2.408031 -14.967237 -9.248918 -2.198408 -26.225994 -10.042663 9.264896 50.046360 -2.210666 -3.320351 -16.254183 -1.709933 -1.959644 
-13.238948 42.917179 5.893464 6.355050 4.202630 23.133801 -20.938400 0.155232 -6.439050 16.128599 7.049420 -3.317420 13.356111 -12.393285 -12.157049 15.370400 8.223000 -2.512730 2.000000 -2.000000 0.000000 -93.318001 -28.398100 -149.792999 126.231003 -0.128270 0.127958 0.046489 -0.024327 -145.641998 -2.000000 2.000000 0.000000 79.298599 14.221700 -168.889999 -133.457001 0.127527 0.082398 -0.060787 0.044819 -153.141998 -5.528775 0.093957 1.923361 35.537724 2.978232 2.472610 -17.858028 -7.802567 -2.301170 -27.209721 -10.414820 10.567431 49.780197 -2.237856 -3.299842 -17.720781 -2.006607 -2.118037 
-12.684221 42.907539 5.402827 6.190260 4.407850 20.917101 -20.534700 0.422776 -6.364570 16.442101 7.198390 -3.240660 13.096769 -12.009852 -11.414346 15.287700 8.100890 -2.275010 2.000000 -2.000000 0.000000 -93.348099 -28.818399 -149.988007 126.210999 -0.128310 0.127987 0.046645 -0.025326 -146.003998 -2.000000 2.000000 0.000000 79.239899 14.172800 -168.860992 -133.173996 0.127984 0.082829 -0.061073 0.045789 -153.503998 -4.652328 -1.404954 2.971514 34.564831 2.976868 2.407468 -18.945082 -4.700668 -1.392143 -28.007265 -10.655265 11.181381 49.357456 -2.271859 -3.285689 -16.836540 -2.429635 -2.220440 
-12.129383 42.897892 4.912223 6.025370 4.603440 18.688499 -20.141100 0.700323 -6.290960 16.746000 7.347180 -3.163540 12.854918 -11.631328 -10.682609 15.194900 7.969410 -2.041550 2.000000 -2.000000 0.000000 -93.378197 -29.238701 -150.192001 126.202003 -0.128330 0.128002 0.046813 -0.026352 -146.375000 -2.000000 2.000000 0.000000 79.181297 14.123900 -168.822006 -132.901001 0.128427 0.083242 -0.061373 0.046784 -153.875000 -3.806224 -2.926254 3.978377 33.496315 2.957671 2.368069 -19.990505 -1.636207 -0.403348 -28.888664 -10.874087 11.828205 48.993084 -2.300778 -3.257578 -15.895510 -2.901745 -2.306557 
-11.608920 43.216953 4.574456 6.180140 4.369090 17.211000 -20.067900 1.016240 -6.589550 17.068600 7.642240 -3.247400 12.935774 -11.376131 -9.775152 15.101700 7.818660 -1.800270 2.000000 -2.000000 0.000000 -93.202103 -28.614401 -150.524994 125.938004 -0.128875 0.128399 0.046844 -0.026541 -146.442993 -2.000000 2.000000 0.000000 79.043999 13.332300 -168.559998 -132.276001 0.129446 0.084179 -0.061293 0.046523 -153.776993 -3.602808 -3.776326 3.911108 32.247849 2.960532 2.298207 -18.718012 -0.376329 0.015581 -29.674723 -10.877128 11.901397 48.060051 -2.349992 -3.221784 -13.755625 -4.195819 -2.482980 
-11.088525 43.536003 4.236701 6.344710 4.134760 15.742800 -19.985399 1.332740 -6.886750 17.391600 7.927500 -3.337210 13.024196 -11.114464 -8.887296 14.998800 7.668070 -1.551380 2.000000 -2.000000 0.000000 -93.035698 -27.980400 -150.858002 125.683998 -0.129402 0.128779 0.046881 -0.026757 -146.520996 -2.000000 2.000000 0.000000 78.896896 12.540600 -168.287994 -131.651001 0.130476 0.085105 -0.061214 0.046261 -153.679993 -3.413048 -4.632881 3.862083 30.902500 2.949391 2.235484 -17.348454 0.897904 0.418150 -30.436768 -10.882915 11.975719 46.998890 -2.392565 -3.155124 -11.493387 -5.489314 -2.642163 
-10.723278 44.029068 4.038558 6.500100 3.978250 14.545000 -19.821600 1.490150 -6.911430 17.932699 8.116600 -3.289690 13.287853 -11.063658 -8.777280 15.028900 7.686420 -1.455880 2.000000 -2.000000 0.000000 -92.430000 -27.804501 -150.828995 125.166000 -0.130480 0.129546 0.046667 -0.025462 -146.052994 -2.000000 2.000000 0.000000 79.179497 11.193200 -168.401001 -131.210999 0.131206 0.085750 -0.060125 0.042477 -152.272995 -3.878707 -4.518921 5.322567 30.808638 2.904649 2.234801 -14.499153 -1.055777 -0.111838 -30.592226 -10.619210 11.608311 45.831200 -2.433999 -3.118495 -11.176558 -5.827737 -2.639949 
-10.358011 44.521996 3.840394 6.675140 3.831350 13.339000 -19.657600 1.653630 -6.947680 18.474199 8.305130 -3.249810 13.550118 -11.018402 -8.680276 15.059000 7.704760 -1.368830 2.000000 -2.000000 0.000000 -91.834000 -27.628700 -150.800003 124.649002 -0.131565 0.130304 0.046468 -0.024192 -145.593994 -2.000000 2.000000 0.000000 79.462196 9.855610 -168.511993 -130.761993 0.131958 0.086402 -0.059136 0.038693 -150.876999 -4.297191 -4.389246 6.776838 30.675787 2.866244 2.256370 -11.695139 -3.047592 -0.549469 -30.747463 -10.377675 11.236094 44.661701 -2.475398 -3.041706 -10.849736 -6.191592 -2.647806 
-10.109789 45.042191 3.683749 6.733260 3.753300 12.699000 -19.775000 1.441560 -6.817950 18.347300 8.060490 -3.219770 13.905512 -11.092366 -8.939785 15.121400 7.818100 -1.367930 2.000000 -2.000000 0.000000 -90.778503 -27.110800 -150.673996 124.346001 -0.132203 0.130742 0.046195 -0.022325 -144.919998 -2.000000 2.000000 0.000000 80.184196 8.019740 -168.544998 -130.546997 0.132319 0.086713 -0.059122 0.038640 -150.856995 -5.216803 -3.630763 8.451084 31.293768 2.778282 2.302134 -6.393035 -6.238454 -0.470386 -30.376661 -9.967470 10.420074 44.301254 -2.456192 -3.050877 -11.618888 -5.574608 -2.594784 
